solid 40323106_CYLINDER
  facet normal 0.000000e+00 -1.000000e+00 0.000000e+00
    outer loop
      vertex 3.000000e+00 0.000000e+00 -1.000000e+00
      vertex 0.000000e+00 0.000000e+00 0.000000e+00
      vertex 0.000000e+00 0.000000e+00 -1.000000e+00
    endloop
  endfacet
  facet normal -1.000000e+00 0.000000e+00 0.000000e+00
    outer loop
      vertex 0.000000e+00 2.500000e-01 -1.000000e+00
      vertex 0.000000e+00 0.000000e+00 -1.000000e+00
      vertex 0.000000e+00 0.000000e+00 0.000000e+00
    endloop
  endfacet
  facet normal 0.000000e+00 -9.876883e-01 -1.564345e-01
    outer loop
      vertex 0.000000e+00 3.670761e-02 -1.231763e+00
      vertex 3.000000e+00 0.000000e+00 -1.000000e+00
      vertex 0.000000e+00 0.000000e+00 -1.000000e+00
    endloop
  endfacet
  facet normal -1.000000e+00 0.000000e+00 0.000000e+00
    outer loop
      vertex 0.000000e+00 2.880499e-01 -1.191301e+00
      vertex 0.000000e+00 3.670761e-02 -1.231763e+00
      vertex 0.000000e+00 0.000000e+00 -1.000000e+00
    endloop
  endfacet
  facet normal -1.000000e+00 0.000000e+00 0.000000e+00
    outer loop
      vertex 0.000000e+00 2.880499e-01 -1.191301e+00
      vertex 0.000000e+00 0.000000e+00 -1.000000e+00
      vertex 0.000000e+00 2.500000e-01 -1.000000e+00
    endloop
  endfacet
  facet normal 0.000000e+00 -1.000000e+00 0.000000e+00
    outer loop
      vertex 3.000000e+00 0.000000e+00 -1.000000e+00
      vertex 3.000000e+00 0.000000e+00 0.000000e+00
      vertex 0.000000e+00 0.000000e+00 0.000000e+00
    endloop
  endfacet
  facet normal 0.000000e+00 0.000000e+00 1.000000e+00
    outer loop
      vertex 2.175203e-01 1.937058e-01 0.000000e+00
      vertex 0.000000e+00 0.000000e+00 0.000000e+00
      vertex 3.000000e+00 0.000000e+00 0.000000e+00
    endloop
  endfacet
  facet normal 0.000000e+00 0.000000e+00 1.000000e+00
    outer loop
      vertex 1.850000e-01 2.500000e-01 0.000000e+00
      vertex 0.000000e+00 1.500000e+00 0.000000e+00
      vertex 0.000000e+00 0.000000e+00 0.000000e+00
    endloop
  endfacet
  facet normal -1.000000e+00 0.000000e+00 0.000000e+00
    outer loop
      vertex 0.000000e+00 9.413009e-01 -5.380499e-01
      vertex 0.000000e+00 0.000000e+00 0.000000e+00
      vertex 0.000000e+00 1.500000e+00 0.000000e+00
    endloop
  endfacet
  facet normal 0.000000e+00 0.000000e+00 1.000000e+00
    outer loop
      vertex 2.175203e-01 1.937058e-01 0.000000e+00
      vertex 1.850000e-01 2.500000e-01 0.000000e+00
      vertex 0.000000e+00 0.000000e+00 0.000000e+00
    endloop
  endfacet
  facet normal -1.000000e+00 0.000000e+00 0.000000e+00
    outer loop
      vertex 0.000000e+00 2.880499e-01 -8.086991e-01
      vertex 0.000000e+00 2.500000e-01 -1.000000e+00
      vertex 0.000000e+00 0.000000e+00 0.000000e+00
    endloop
  endfacet
  facet normal -1.000000e+00 0.000000e+00 0.000000e+00
    outer loop
      vertex 0.000000e+00 3.964543e-01 -6.464543e-01
      vertex 0.000000e+00 2.880499e-01 -8.086991e-01
      vertex 0.000000e+00 0.000000e+00 0.000000e+00
    endloop
  endfacet
  facet normal -1.000000e+00 0.000000e+00 0.000000e+00
    outer loop
      vertex 0.000000e+00 5.586991e-01 -5.380499e-01
      vertex 0.000000e+00 3.964543e-01 -6.464543e-01
      vertex 0.000000e+00 0.000000e+00 0.000000e+00
    endloop
  endfacet
  facet normal -1.000000e+00 0.000000e+00 0.000000e+00
    outer loop
      vertex 0.000000e+00 7.500000e-01 -5.000000e-01
      vertex 0.000000e+00 5.586991e-01 -5.380499e-01
      vertex 0.000000e+00 0.000000e+00 0.000000e+00
    endloop
  endfacet
  facet normal -1.000000e+00 0.000000e+00 0.000000e+00
    outer loop
      vertex 0.000000e+00 9.413009e-01 -5.380499e-01
      vertex 0.000000e+00 7.500000e-01 -5.000000e-01
      vertex 0.000000e+00 0.000000e+00 0.000000e+00
    endloop
  endfacet
  facet normal 1.000000e+00 0.000000e+00 0.000000e+00
    outer loop
      vertex 3.000000e+00 3.964543e-01 -6.464543e-01
      vertex 3.000000e+00 0.000000e+00 0.000000e+00
      vertex 3.000000e+00 0.000000e+00 -1.000000e+00
    endloop
  endfacet
  facet normal 0.000000e+00 0.000000e+00 1.000000e+00
    outer loop
      vertex 2.565000e+00 1.250000e+00 0.000000e+00
      vertex 3.000000e+00 0.000000e+00 0.000000e+00
      vertex 3.000000e+00 1.500000e+00 0.000000e+00
    endloop
  endfacet
  facet normal 1.000000e+00 0.000000e+00 0.000000e+00
    outer loop
      vertex 3.000000e+00 5.586991e-01 -5.380499e-01
      vertex 3.000000e+00 1.500000e+00 0.000000e+00
      vertex 3.000000e+00 0.000000e+00 0.000000e+00
    endloop
  endfacet
  facet normal 0.000000e+00 0.000000e+00 1.000000e+00
    outer loop
      vertex 2.824797e-01 1.937058e-01 0.000000e+00
      vertex 3.000000e+00 0.000000e+00 0.000000e+00
      vertex 3.150000e-01 2.500000e-01 0.000000e+00
    endloop
  endfacet
  facet normal 0.000000e+00 0.000000e+00 1.000000e+00
    outer loop
      vertex 2.467520e+00 1.937058e-01 0.000000e+00
      vertex 3.150000e-01 2.500000e-01 0.000000e+00
      vertex 3.000000e+00 0.000000e+00 0.000000e+00
    endloop
  endfacet
  facet normal 0.000000e+00 0.000000e+00 1.000000e+00
    outer loop
      vertex 2.824797e-01 1.937058e-01 0.000000e+00
      vertex 2.175203e-01 1.937058e-01 0.000000e+00
      vertex 3.000000e+00 0.000000e+00 0.000000e+00
    endloop
  endfacet
  facet normal 0.000000e+00 0.000000e+00 1.000000e+00
    outer loop
      vertex 2.532480e+00 1.937058e-01 0.000000e+00
      vertex 3.000000e+00 0.000000e+00 0.000000e+00
      vertex 2.565000e+00 2.500000e-01 0.000000e+00
    endloop
  endfacet
  facet normal 0.000000e+00 0.000000e+00 1.000000e+00
    outer loop
      vertex 2.565000e+00 1.250000e+00 0.000000e+00
      vertex 2.565000e+00 2.500000e-01 0.000000e+00
      vertex 3.000000e+00 0.000000e+00 0.000000e+00
    endloop
  endfacet
  facet normal 0.000000e+00 0.000000e+00 1.000000e+00
    outer loop
      vertex 2.532480e+00 1.937058e-01 0.000000e+00
      vertex 2.467520e+00 1.937058e-01 0.000000e+00
      vertex 3.000000e+00 0.000000e+00 0.000000e+00
    endloop
  endfacet
  facet normal 1.000000e+00 0.000000e+00 0.000000e+00
    outer loop
      vertex 3.000000e+00 3.964543e-01 -6.464543e-01
      vertex 3.000000e+00 5.586991e-01 -5.380499e-01
      vertex 3.000000e+00 0.000000e+00 0.000000e+00
    endloop
  endfacet
  facet normal 1.000000e+00 0.000000e+00 0.000000e+00
    outer loop
      vertex 3.000000e+00 2.500000e-01 -1.000000e+00
      vertex 3.000000e+00 0.000000e+00 -1.000000e+00
      vertex 3.000000e+00 3.670761e-02 -1.231763e+00
    endloop
  endfacet
  facet normal 0.000000e+00 -9.876883e-01 -1.564345e-01
    outer loop
      vertex 0.000000e+00 3.670761e-02 -1.231763e+00
      vertex 3.000000e+00 3.670761e-02 -1.231763e+00
      vertex 3.000000e+00 0.000000e+00 -1.000000e+00
    endloop
  endfacet
  facet normal 1.000000e+00 0.000000e+00 0.000000e+00
    outer loop
      vertex 3.000000e+00 2.880499e-01 -8.086991e-01
      vertex 3.000000e+00 0.000000e+00 -1.000000e+00
      vertex 3.000000e+00 2.500000e-01 -1.000000e+00
    endloop
  endfacet
  facet normal 1.000000e+00 0.000000e+00 0.000000e+00
    outer loop
      vertex 3.000000e+00 2.880499e-01 -8.086991e-01
      vertex 3.000000e+00 3.964543e-01 -6.464543e-01
      vertex 3.000000e+00 0.000000e+00 -1.000000e+00
    endloop
  endfacet
  facet normal 0.000000e+00 1.000000e+00 0.000000e+00
    outer loop
      vertex 0.000000e+00 1.500000e+00 -1.000000e+00
      vertex 3.000000e+00 1.500000e+00 0.000000e+00
      vertex 3.000000e+00 1.500000e+00 -1.000000e+00
    endloop
  endfacet
  facet normal 1.000000e+00 0.000000e+00 0.000000e+00
    outer loop
      vertex 3.000000e+00 1.250000e+00 -1.000000e+00
      vertex 3.000000e+00 1.500000e+00 -1.000000e+00
      vertex 3.000000e+00 1.500000e+00 0.000000e+00
    endloop
  endfacet
  facet normal 0.000000e+00 9.876883e-01 -1.564345e-01
    outer loop
      vertex 3.000000e+00 1.463292e+00 -1.231763e+00
      vertex 0.000000e+00 1.500000e+00 -1.000000e+00
      vertex 3.000000e+00 1.500000e+00 -1.000000e+00
    endloop
  endfacet
  facet normal 1.000000e+00 0.000000e+00 0.000000e+00
    outer loop
      vertex 3.000000e+00 1.211950e+00 -1.191301e+00
      vertex 3.000000e+00 1.463292e+00 -1.231763e+00
      vertex 3.000000e+00 1.500000e+00 -1.000000e+00
    endloop
  endfacet
  facet normal 1.000000e+00 0.000000e+00 0.000000e+00
    outer loop
      vertex 3.000000e+00 1.250000e+00 -1.000000e+00
      vertex 3.000000e+00 1.211950e+00 -1.191301e+00
      vertex 3.000000e+00 1.500000e+00 -1.000000e+00
    endloop
  endfacet
  facet normal 0.000000e+00 1.000000e+00 0.000000e+00
    outer loop
      vertex 0.000000e+00 1.500000e+00 -1.000000e+00
      vertex 0.000000e+00 1.500000e+00 0.000000e+00
      vertex 3.000000e+00 1.500000e+00 0.000000e+00
    endloop
  endfacet
  facet normal 0.000000e+00 0.000000e+00 1.000000e+00
    outer loop
      vertex 2.532480e+00 1.306294e+00 0.000000e+00
      vertex 3.000000e+00 1.500000e+00 0.000000e+00
      vertex 0.000000e+00 1.500000e+00 0.000000e+00
    endloop
  endfacet
  facet normal 0.000000e+00 0.000000e+00 1.000000e+00
    outer loop
      vertex 2.532480e+00 1.306294e+00 0.000000e+00
      vertex 2.565000e+00 1.250000e+00 0.000000e+00
      vertex 3.000000e+00 1.500000e+00 0.000000e+00
    endloop
  endfacet
  facet normal 1.000000e+00 0.000000e+00 0.000000e+00
    outer loop
      vertex 3.000000e+00 1.211950e+00 -8.086991e-01
      vertex 3.000000e+00 1.250000e+00 -1.000000e+00
      vertex 3.000000e+00 1.500000e+00 0.000000e+00
    endloop
  endfacet
  facet normal 1.000000e+00 0.000000e+00 0.000000e+00
    outer loop
      vertex 3.000000e+00 1.103546e+00 -6.464543e-01
      vertex 3.000000e+00 1.211950e+00 -8.086991e-01
      vertex 3.000000e+00 1.500000e+00 0.000000e+00
    endloop
  endfacet
  facet normal 1.000000e+00 0.000000e+00 0.000000e+00
    outer loop
      vertex 3.000000e+00 9.413009e-01 -5.380499e-01
      vertex 3.000000e+00 1.103546e+00 -6.464543e-01
      vertex 3.000000e+00 1.500000e+00 0.000000e+00
    endloop
  endfacet
  facet normal 1.000000e+00 0.000000e+00 0.000000e+00
    outer loop
      vertex 3.000000e+00 7.500000e-01 -5.000000e-01
      vertex 3.000000e+00 9.413009e-01 -5.380499e-01
      vertex 3.000000e+00 1.500000e+00 0.000000e+00
    endloop
  endfacet
  facet normal 1.000000e+00 0.000000e+00 0.000000e+00
    outer loop
      vertex 3.000000e+00 5.586991e-01 -5.380499e-01
      vertex 3.000000e+00 7.500000e-01 -5.000000e-01
      vertex 3.000000e+00 1.500000e+00 0.000000e+00
    endloop
  endfacet
  facet normal -1.000000e+00 0.000000e+00 0.000000e+00
    outer loop
      vertex 0.000000e+00 1.103546e+00 -6.464543e-01
      vertex 0.000000e+00 1.500000e+00 0.000000e+00
      vertex 0.000000e+00 1.500000e+00 -1.000000e+00
    endloop
  endfacet
  facet normal 0.000000e+00 0.000000e+00 1.000000e+00
    outer loop
      vertex 2.175203e-01 1.306294e+00 0.000000e+00
      vertex 2.824797e-01 1.306294e+00 0.000000e+00
      vertex 0.000000e+00 1.500000e+00 0.000000e+00
    endloop
  endfacet
  facet normal 0.000000e+00 0.000000e+00 1.000000e+00
    outer loop
      vertex 2.435000e+00 2.500000e-01 0.000000e+00
      vertex 0.000000e+00 1.500000e+00 0.000000e+00
      vertex 2.824797e-01 1.306294e+00 0.000000e+00
    endloop
  endfacet
  facet normal 0.000000e+00 0.000000e+00 1.000000e+00
    outer loop
      vertex 1.850000e-01 1.250000e+00 0.000000e+00
      vertex 2.175203e-01 1.306294e+00 0.000000e+00
      vertex 0.000000e+00 1.500000e+00 0.000000e+00
    endloop
  endfacet
  facet normal 0.000000e+00 0.000000e+00 1.000000e+00
    outer loop
      vertex 1.850000e-01 2.500000e-01 0.000000e+00
      vertex 1.850000e-01 1.250000e+00 0.000000e+00
      vertex 0.000000e+00 1.500000e+00 0.000000e+00
    endloop
  endfacet
  facet normal 0.000000e+00 0.000000e+00 1.000000e+00
    outer loop
      vertex 2.435000e+00 1.250000e+00 0.000000e+00
      vertex 0.000000e+00 1.500000e+00 0.000000e+00
      vertex 2.435000e+00 2.500000e-01 0.000000e+00
    endloop
  endfacet
  facet normal 0.000000e+00 0.000000e+00 1.000000e+00
    outer loop
      vertex 2.467520e+00 1.306294e+00 0.000000e+00
      vertex 2.532480e+00 1.306294e+00 0.000000e+00
      vertex 0.000000e+00 1.500000e+00 0.000000e+00
    endloop
  endfacet
  facet normal 0.000000e+00 0.000000e+00 1.000000e+00
    outer loop
      vertex 2.435000e+00 1.250000e+00 0.000000e+00
      vertex 2.467520e+00 1.306294e+00 0.000000e+00
      vertex 0.000000e+00 1.500000e+00 0.000000e+00
    endloop
  endfacet
  facet normal -1.000000e+00 0.000000e+00 0.000000e+00
    outer loop
      vertex 0.000000e+00 1.103546e+00 -6.464543e-01
      vertex 0.000000e+00 9.413009e-01 -5.380499e-01
      vertex 0.000000e+00 1.500000e+00 0.000000e+00
    endloop
  endfacet
  facet normal 0.000000e+00 9.876883e-01 -1.564345e-01
    outer loop
      vertex 0.000000e+00 1.463292e+00 -1.231763e+00
      vertex 0.000000e+00 1.500000e+00 -1.000000e+00
      vertex 3.000000e+00 1.463292e+00 -1.231763e+00
    endloop
  endfacet
  facet normal -1.000000e+00 0.000000e+00 0.000000e+00
    outer loop
      vertex 0.000000e+00 1.250000e+00 -1.000000e+00
      vertex 0.000000e+00 1.500000e+00 -1.000000e+00
      vertex 0.000000e+00 1.463292e+00 -1.231763e+00
    endloop
  endfacet
  facet normal -1.000000e+00 0.000000e+00 0.000000e+00
    outer loop
      vertex 0.000000e+00 1.211950e+00 -8.086991e-01
      vertex 0.000000e+00 1.103546e+00 -6.464543e-01
      vertex 0.000000e+00 1.500000e+00 -1.000000e+00
    endloop
  endfacet
  facet normal -1.000000e+00 0.000000e+00 0.000000e+00
    outer loop
      vertex 0.000000e+00 1.250000e+00 -1.000000e+00
      vertex 0.000000e+00 1.211950e+00 -8.086991e-01
      vertex 0.000000e+00 1.500000e+00 -1.000000e+00
    endloop
  endfacet
  facet normal 0.000000e+00 0.000000e+00 1.000000e+00
    outer loop
      vertex 2.435000e+00 2.500000e-01 0.000000e+00
      vertex 2.824797e-01 1.306294e+00 0.000000e+00
      vertex 3.150000e-01 1.250000e+00 0.000000e+00
    endloop
  endfacet
  facet normal -8.659001e-01 -5.002171e-01 0.000000e+00
    outer loop
      vertex 3.150000e-01 1.250000e+00 -5.000000e-01
      vertex 3.150000e-01 1.250000e+00 0.000000e+00
      vertex 2.824797e-01 1.306294e+00 0.000000e+00
    endloop
  endfacet
  facet normal 0.000000e+00 0.000000e+00 1.000000e+00
    outer loop
      vertex 3.150000e-01 2.500000e-01 0.000000e+00
      vertex 3.150000e-01 1.250000e+00 0.000000e+00
      vertex 2.824797e-01 1.193706e+00 0.000000e+00
    endloop
  endfacet
  facet normal -8.659001e-01 5.002171e-01 -3.752209e-05
    outer loop
      vertex 2.825159e-01 1.193731e+00 -5.000000e-01
      vertex 2.824797e-01 1.193706e+00 0.000000e+00
      vertex 3.150000e-01 1.250000e+00 0.000000e+00
    endloop
  endfacet
  facet normal 0.000000e+00 0.000000e+00 1.000000e+00
    outer loop
      vertex 2.467520e+00 1.937058e-01 0.000000e+00
      vertex 3.150000e-01 1.250000e+00 0.000000e+00
      vertex 3.150000e-01 2.500000e-01 0.000000e+00
    endloop
  endfacet
  facet normal 0.000000e+00 0.000000e+00 1.000000e+00
    outer loop
      vertex 2.467520e+00 1.937058e-01 0.000000e+00
      vertex 2.435000e+00 2.500000e-01 0.000000e+00
      vertex 3.150000e-01 1.250000e+00 0.000000e+00
    endloop
  endfacet
  facet normal -8.660445e-01 4.999670e-01 0.000000e+00
    outer loop
      vertex 2.825159e-01 1.193731e+00 -5.000000e-01
      vertex 3.150000e-01 1.250000e+00 0.000000e+00
      vertex 3.150000e-01 1.250000e+00 -5.000000e-01
    endloop
  endfacet
  facet normal 0.000000e+00 -1.000000e+00 5.026352e-05
    outer loop
      vertex 2.825159e-01 1.306269e+00 -5.000000e-01
      vertex 2.824797e-01 1.306294e+00 0.000000e+00
      vertex 2.175203e-01 1.306294e+00 0.000000e+00
    endloop
  endfacet
  facet normal -8.660445e-01 -4.999670e-01 -3.754511e-05
    outer loop
      vertex 2.825159e-01 1.306269e+00 -5.000000e-01
      vertex 3.150000e-01 1.250000e+00 -5.000000e-01
      vertex 2.824797e-01 1.306294e+00 0.000000e+00
    endloop
  endfacet
  facet normal 8.659001e-01 -5.002171e-01 -3.752209e-05
    outer loop
      vertex 2.174841e-01 1.306269e+00 -5.000000e-01
      vertex 2.175203e-01 1.306294e+00 0.000000e+00
      vertex 1.850000e-01 1.250000e+00 0.000000e+00
    endloop
  endfacet
  facet normal -3.414399e-15 -1.000000e+00 5.026352e-05
    outer loop
      vertex 2.825159e-01 1.306269e+00 -5.000000e-01
      vertex 2.175203e-01 1.306294e+00 0.000000e+00
      vertex 2.174841e-01 1.306269e+00 -5.000000e-01
    endloop
  endfacet
  facet normal 0.000000e+00 0.000000e+00 1.000000e+00
    outer loop
      vertex 2.175203e-01 3.062942e-01 0.000000e+00
      vertex 2.175203e-01 1.193706e+00 0.000000e+00
      vertex 1.850000e-01 1.250000e+00 0.000000e+00
    endloop
  endfacet
  facet normal 8.659001e-01 5.002171e-01 0.000000e+00
    outer loop
      vertex 1.850000e-01 1.250000e+00 -5.000000e-01
      vertex 1.850000e-01 1.250000e+00 0.000000e+00
      vertex 2.175203e-01 1.193706e+00 0.000000e+00
    endloop
  endfacet
  facet normal 0.000000e+00 0.000000e+00 1.000000e+00
    outer loop
      vertex 1.850000e-01 2.500000e-01 0.000000e+00
      vertex 2.175203e-01 3.062942e-01 0.000000e+00
      vertex 1.850000e-01 1.250000e+00 0.000000e+00
    endloop
  endfacet
  facet normal 8.660445e-01 -4.999670e-01 0.000000e+00
    outer loop
      vertex 2.174841e-01 1.306269e+00 -5.000000e-01
      vertex 1.850000e-01 1.250000e+00 0.000000e+00
      vertex 1.850000e-01 1.250000e+00 -5.000000e-01
    endloop
  endfacet
  facet normal 0.000000e+00 0.000000e+00 1.000000e+00
    outer loop
      vertex 2.824797e-01 3.062942e-01 0.000000e+00
      vertex 2.824797e-01 1.193706e+00 0.000000e+00
      vertex 2.175203e-01 1.193706e+00 0.000000e+00
    endloop
  endfacet
  facet normal 0.000000e+00 1.000000e+00 5.026352e-05
    outer loop
      vertex 2.174841e-01 1.193731e+00 -5.000000e-01
      vertex 2.175203e-01 1.193706e+00 0.000000e+00
      vertex 2.824797e-01 1.193706e+00 0.000000e+00
    endloop
  endfacet
  facet normal 0.000000e+00 0.000000e+00 1.000000e+00
    outer loop
      vertex 2.175203e-01 3.062942e-01 0.000000e+00
      vertex 2.824797e-01 3.062942e-01 0.000000e+00
      vertex 2.175203e-01 1.193706e+00 0.000000e+00
    endloop
  endfacet
  facet normal 8.660445e-01 4.999670e-01 -3.754511e-05
    outer loop
      vertex 1.850000e-01 1.250000e+00 -5.000000e-01
      vertex 2.175203e-01 1.193706e+00 0.000000e+00
      vertex 2.174841e-01 1.193731e+00 -5.000000e-01
    endloop
  endfacet
  facet normal 0.000000e+00 0.000000e+00 1.000000e+00
    outer loop
      vertex 2.824797e-01 3.062942e-01 0.000000e+00
      vertex 3.150000e-01 2.500000e-01 0.000000e+00
      vertex 2.824797e-01 1.193706e+00 0.000000e+00
    endloop
  endfacet
  facet normal 0.000000e+00 1.000000e+00 5.026352e-05
    outer loop
      vertex 2.174841e-01 1.193731e+00 -5.000000e-01
      vertex 2.824797e-01 1.193706e+00 0.000000e+00
      vertex 2.825159e-01 1.193731e+00 -5.000000e-01
    endloop
  endfacet
  facet normal -8.659001e-01 -5.002171e-01 0.000000e+00
    outer loop
      vertex 3.150000e-01 2.500000e-01 -5.000000e-01
      vertex 3.150000e-01 2.500000e-01 0.000000e+00
      vertex 2.824797e-01 3.062942e-01 0.000000e+00
    endloop
  endfacet
  facet normal -8.659001e-01 5.002171e-01 -3.752209e-05
    outer loop
      vertex 2.825159e-01 1.937310e-01 -5.000000e-01
      vertex 2.824797e-01 1.937058e-01 0.000000e+00
      vertex 3.150000e-01 2.500000e-01 0.000000e+00
    endloop
  endfacet
  facet normal -8.660445e-01 4.999670e-01 0.000000e+00
    outer loop
      vertex 2.825159e-01 1.937310e-01 -5.000000e-01
      vertex 3.150000e-01 2.500000e-01 0.000000e+00
      vertex 3.150000e-01 2.500000e-01 -5.000000e-01
    endloop
  endfacet
  facet normal -8.545508e-16 -1.000000e+00 5.026352e-05
    outer loop
      vertex 2.825159e-01 3.062690e-01 -5.000000e-01
      vertex 2.824797e-01 3.062942e-01 0.000000e+00
      vertex 2.175203e-01 3.062942e-01 0.000000e+00
    endloop
  endfacet
  facet normal -8.660445e-01 -4.999670e-01 -3.754511e-05
    outer loop
      vertex 2.825159e-01 3.062690e-01 -5.000000e-01
      vertex 3.150000e-01 2.500000e-01 -5.000000e-01
      vertex 2.824797e-01 3.062942e-01 0.000000e+00
    endloop
  endfacet
  facet normal 8.659001e-01 -5.002171e-01 -3.752209e-05
    outer loop
      vertex 2.174841e-01 3.062690e-01 -5.000000e-01
      vertex 2.175203e-01 3.062942e-01 0.000000e+00
      vertex 1.850000e-01 2.500000e-01 0.000000e+00
    endloop
  endfacet
  facet normal 0.000000e+00 -1.000000e+00 5.026352e-05
    outer loop
      vertex 2.825159e-01 3.062690e-01 -5.000000e-01
      vertex 2.175203e-01 3.062942e-01 0.000000e+00
      vertex 2.174841e-01 3.062690e-01 -5.000000e-01
    endloop
  endfacet
  facet normal 8.659001e-01 5.002171e-01 0.000000e+00
    outer loop
      vertex 1.850000e-01 2.500000e-01 -5.000000e-01
      vertex 1.850000e-01 2.500000e-01 0.000000e+00
      vertex 2.175203e-01 1.937058e-01 0.000000e+00
    endloop
  endfacet
  facet normal 8.660445e-01 -4.999670e-01 0.000000e+00
    outer loop
      vertex 2.174841e-01 3.062690e-01 -5.000000e-01
      vertex 1.850000e-01 2.500000e-01 0.000000e+00
      vertex 1.850000e-01 2.500000e-01 -5.000000e-01
    endloop
  endfacet
  facet normal 4.272754e-16 1.000000e+00 5.026352e-05
    outer loop
      vertex 2.174841e-01 1.937310e-01 -5.000000e-01
      vertex 2.175203e-01 1.937058e-01 0.000000e+00
      vertex 2.824797e-01 1.937058e-01 0.000000e+00
    endloop
  endfacet
  facet normal 8.660445e-01 4.999670e-01 -3.754511e-05
    outer loop
      vertex 1.850000e-01 2.500000e-01 -5.000000e-01
      vertex 2.175203e-01 1.937058e-01 0.000000e+00
      vertex 2.174841e-01 1.937310e-01 -5.000000e-01
    endloop
  endfacet
  facet normal 4.267999e-16 1.000000e+00 5.026352e-05
    outer loop
      vertex 2.174841e-01 1.937310e-01 -5.000000e-01
      vertex 2.824797e-01 1.937058e-01 0.000000e+00
      vertex 2.825159e-01 1.937310e-01 -5.000000e-01
    endloop
  endfacet
  facet normal 0.000000e+00 0.000000e+00 1.000000e+00
    outer loop
      vertex 2.532480e+00 1.193706e+00 0.000000e+00
      vertex 2.532480e+00 3.062942e-01 0.000000e+00
      vertex 2.565000e+00 2.500000e-01 0.000000e+00
    endloop
  endfacet
  facet normal -8.659001e-01 -5.002171e-01 0.000000e+00
    outer loop
      vertex 2.565000e+00 2.500000e-01 -5.000000e-01
      vertex 2.565000e+00 2.500000e-01 0.000000e+00
      vertex 2.532480e+00 3.062942e-01 0.000000e+00
    endloop
  endfacet
  facet normal -8.659001e-01 5.002171e-01 -3.752209e-05
    outer loop
      vertex 2.532516e+00 1.937310e-01 -5.000000e-01
      vertex 2.532480e+00 1.937058e-01 0.000000e+00
      vertex 2.565000e+00 2.500000e-01 0.000000e+00
    endloop
  endfacet
  facet normal 0.000000e+00 0.000000e+00 1.000000e+00
    outer loop
      vertex 2.532480e+00 1.193706e+00 0.000000e+00
      vertex 2.565000e+00 2.500000e-01 0.000000e+00
      vertex 2.565000e+00 1.250000e+00 0.000000e+00
    endloop
  endfacet
  facet normal -8.660445e-01 4.999670e-01 0.000000e+00
    outer loop
      vertex 2.532516e+00 1.937310e-01 -5.000000e-01
      vertex 2.565000e+00 2.500000e-01 0.000000e+00
      vertex 2.565000e+00 2.500000e-01 -5.000000e-01
    endloop
  endfacet
  facet normal 0.000000e+00 0.000000e+00 1.000000e+00
    outer loop
      vertex 2.467520e+00 1.193706e+00 0.000000e+00
      vertex 2.467520e+00 3.062942e-01 0.000000e+00
      vertex 2.532480e+00 3.062942e-01 0.000000e+00
    endloop
  endfacet
  facet normal -8.545508e-16 -1.000000e+00 5.026352e-05
    outer loop
      vertex 2.532516e+00 3.062690e-01 -5.000000e-01
      vertex 2.532480e+00 3.062942e-01 0.000000e+00
      vertex 2.467520e+00 3.062942e-01 0.000000e+00
    endloop
  endfacet
  facet normal 0.000000e+00 0.000000e+00 1.000000e+00
    outer loop
      vertex 2.532480e+00 1.193706e+00 0.000000e+00
      vertex 2.467520e+00 1.193706e+00 0.000000e+00
      vertex 2.532480e+00 3.062942e-01 0.000000e+00
    endloop
  endfacet
  facet normal -8.660445e-01 -4.999670e-01 -3.754511e-05
    outer loop
      vertex 2.532516e+00 3.062690e-01 -5.000000e-01
      vertex 2.565000e+00 2.500000e-01 -5.000000e-01
      vertex 2.532480e+00 3.062942e-01 0.000000e+00
    endloop
  endfacet
  facet normal 0.000000e+00 0.000000e+00 1.000000e+00
    outer loop
      vertex 2.435000e+00 1.250000e+00 0.000000e+00
      vertex 2.435000e+00 2.500000e-01 0.000000e+00
      vertex 2.467520e+00 3.062942e-01 0.000000e+00
    endloop
  endfacet
  facet normal 8.659001e-01 -5.002171e-01 -3.752209e-05
    outer loop
      vertex 2.467484e+00 3.062690e-01 -5.000000e-01
      vertex 2.467520e+00 3.062942e-01 0.000000e+00
      vertex 2.435000e+00 2.500000e-01 0.000000e+00
    endloop
  endfacet
  facet normal 0.000000e+00 0.000000e+00 1.000000e+00
    outer loop
      vertex 2.467520e+00 1.193706e+00 0.000000e+00
      vertex 2.435000e+00 1.250000e+00 0.000000e+00
      vertex 2.467520e+00 3.062942e-01 0.000000e+00
    endloop
  endfacet
  facet normal 0.000000e+00 -1.000000e+00 5.026352e-05
    outer loop
      vertex 2.532516e+00 3.062690e-01 -5.000000e-01
      vertex 2.467520e+00 3.062942e-01 0.000000e+00
      vertex 2.467484e+00 3.062690e-01 -5.000000e-01
    endloop
  endfacet
  facet normal 8.659001e-01 5.002171e-01 0.000000e+00
    outer loop
      vertex 2.435000e+00 2.500000e-01 -5.000000e-01
      vertex 2.435000e+00 2.500000e-01 0.000000e+00
      vertex 2.467520e+00 1.937058e-01 0.000000e+00
    endloop
  endfacet
  facet normal 8.660445e-01 -4.999670e-01 0.000000e+00
    outer loop
      vertex 2.467484e+00 3.062690e-01 -5.000000e-01
      vertex 2.435000e+00 2.500000e-01 0.000000e+00
      vertex 2.435000e+00 2.500000e-01 -5.000000e-01
    endloop
  endfacet
  facet normal 0.000000e+00 1.000000e+00 5.026352e-05
    outer loop
      vertex 2.467484e+00 1.937310e-01 -5.000000e-01
      vertex 2.467520e+00 1.937058e-01 0.000000e+00
      vertex 2.532480e+00 1.937058e-01 0.000000e+00
    endloop
  endfacet
  facet normal 8.660445e-01 4.999670e-01 -3.754511e-05
    outer loop
      vertex 2.435000e+00 2.500000e-01 -5.000000e-01
      vertex 2.467520e+00 1.937058e-01 0.000000e+00
      vertex 2.467484e+00 1.937310e-01 -5.000000e-01
    endloop
  endfacet
  facet normal 4.267999e-16 1.000000e+00 5.026352e-05
    outer loop
      vertex 2.467484e+00 1.937310e-01 -5.000000e-01
      vertex 2.532480e+00 1.937058e-01 0.000000e+00
      vertex 2.532516e+00 1.937310e-01 -5.000000e-01
    endloop
  endfacet
  facet normal -8.659001e-01 -5.002171e-01 0.000000e+00
    outer loop
      vertex 2.565000e+00 1.250000e+00 -5.000000e-01
      vertex 2.565000e+00 1.250000e+00 0.000000e+00
      vertex 2.532480e+00 1.306294e+00 0.000000e+00
    endloop
  endfacet
  facet normal -8.659001e-01 5.002171e-01 -3.752209e-05
    outer loop
      vertex 2.532516e+00 1.193731e+00 -5.000000e-01
      vertex 2.532480e+00 1.193706e+00 0.000000e+00
      vertex 2.565000e+00 1.250000e+00 0.000000e+00
    endloop
  endfacet
  facet normal -8.660445e-01 4.999670e-01 0.000000e+00
    outer loop
      vertex 2.532516e+00 1.193731e+00 -5.000000e-01
      vertex 2.565000e+00 1.250000e+00 0.000000e+00
      vertex 2.565000e+00 1.250000e+00 -5.000000e-01
    endloop
  endfacet
  facet normal 0.000000e+00 -1.000000e+00 5.026352e-05
    outer loop
      vertex 2.532516e+00 1.306269e+00 -5.000000e-01
      vertex 2.532480e+00 1.306294e+00 0.000000e+00
      vertex 2.467520e+00 1.306294e+00 0.000000e+00
    endloop
  endfacet
  facet normal -8.660445e-01 -4.999670e-01 -3.754511e-05
    outer loop
      vertex 2.532516e+00 1.306269e+00 -5.000000e-01
      vertex 2.565000e+00 1.250000e+00 -5.000000e-01
      vertex 2.532480e+00 1.306294e+00 0.000000e+00
    endloop
  endfacet
  facet normal 8.659001e-01 -5.002171e-01 -3.752209e-05
    outer loop
      vertex 2.467484e+00 1.306269e+00 -5.000000e-01
      vertex 2.467520e+00 1.306294e+00 0.000000e+00
      vertex 2.435000e+00 1.250000e+00 0.000000e+00
    endloop
  endfacet
  facet normal -3.414399e-15 -1.000000e+00 5.026352e-05
    outer loop
      vertex 2.532516e+00 1.306269e+00 -5.000000e-01
      vertex 2.467520e+00 1.306294e+00 0.000000e+00
      vertex 2.467484e+00 1.306269e+00 -5.000000e-01
    endloop
  endfacet
  facet normal 8.659001e-01 5.002171e-01 0.000000e+00
    outer loop
      vertex 2.435000e+00 1.250000e+00 -5.000000e-01
      vertex 2.435000e+00 1.250000e+00 0.000000e+00
      vertex 2.467520e+00 1.193706e+00 0.000000e+00
    endloop
  endfacet
  facet normal 8.660445e-01 -4.999670e-01 0.000000e+00
    outer loop
      vertex 2.467484e+00 1.306269e+00 -5.000000e-01
      vertex 2.435000e+00 1.250000e+00 0.000000e+00
      vertex 2.435000e+00 1.250000e+00 -5.000000e-01
    endloop
  endfacet
  facet normal 0.000000e+00 1.000000e+00 5.026352e-05
    outer loop
      vertex 2.467484e+00 1.193731e+00 -5.000000e-01
      vertex 2.467520e+00 1.193706e+00 0.000000e+00
      vertex 2.532480e+00 1.193706e+00 0.000000e+00
    endloop
  endfacet
  facet normal 8.660445e-01 4.999670e-01 -3.754511e-05
    outer loop
      vertex 2.435000e+00 1.250000e+00 -5.000000e-01
      vertex 2.467520e+00 1.193706e+00 0.000000e+00
      vertex 2.467484e+00 1.193731e+00 -5.000000e-01
    endloop
  endfacet
  facet normal 0.000000e+00 1.000000e+00 5.026352e-05
    outer loop
      vertex 2.467484e+00 1.193731e+00 -5.000000e-01
      vertex 2.532480e+00 1.193706e+00 0.000000e+00
      vertex 2.532516e+00 1.193731e+00 -5.000000e-01
    endloop
  endfacet
  facet normal 1.000000e+00 0.000000e+00 0.000000e+00
    outer loop
      vertex 3.000000e+00 1.103546e+00 -1.353546e+00
      vertex 3.000000e+00 1.356763e+00 -1.440839e+00
      vertex 3.000000e+00 1.463292e+00 -1.231763e+00
    endloop
  endfacet
  facet normal 0.000000e+00 8.910065e-01 -4.539905e-01
    outer loop
      vertex 0.000000e+00 1.463292e+00 -1.231763e+00
      vertex 3.000000e+00 1.463292e+00 -1.231763e+00
      vertex 3.000000e+00 1.356763e+00 -1.440839e+00
    endloop
  endfacet
  facet normal 1.000000e+00 0.000000e+00 0.000000e+00
    outer loop
      vertex 3.000000e+00 1.211950e+00 -1.191301e+00
      vertex 3.000000e+00 1.103546e+00 -1.353546e+00
      vertex 3.000000e+00 1.463292e+00 -1.231763e+00
    endloop
  endfacet
  facet normal 1.000000e+00 0.000000e+00 0.000000e+00
    outer loop
      vertex 3.000000e+00 3.091611e-01 -1.606763e+00
      vertex 3.000000e+00 1.190839e+00 -1.606763e+00
      vertex 3.000000e+00 1.356763e+00 -1.440839e+00
    endloop
  endfacet
  facet normal 0.000000e+00 7.071068e-01 -7.071068e-01
    outer loop
      vertex 0.000000e+00 1.356763e+00 -1.440839e+00
      vertex 3.000000e+00 1.356763e+00 -1.440839e+00
      vertex 3.000000e+00 1.190839e+00 -1.606763e+00
    endloop
  endfacet
  facet normal 1.000000e+00 0.000000e+00 0.000000e+00
    outer loop
      vertex 3.000000e+00 7.500000e-01 -1.500000e+00
      vertex 3.000000e+00 3.091611e-01 -1.606763e+00
      vertex 3.000000e+00 1.356763e+00 -1.440839e+00
    endloop
  endfacet
  facet normal 1.000000e+00 0.000000e+00 0.000000e+00
    outer loop
      vertex 3.000000e+00 9.413009e-01 -1.461950e+00
      vertex 3.000000e+00 7.500000e-01 -1.500000e+00
      vertex 3.000000e+00 1.356763e+00 -1.440839e+00
    endloop
  endfacet
  facet normal 1.000000e+00 0.000000e+00 0.000000e+00
    outer loop
      vertex 3.000000e+00 1.103546e+00 -1.353546e+00
      vertex 3.000000e+00 9.413009e-01 -1.461950e+00
      vertex 3.000000e+00 1.356763e+00 -1.440839e+00
    endloop
  endfacet
  facet normal 3.449954e-17 8.910065e-01 -4.539905e-01
    outer loop
      vertex 0.000000e+00 1.463292e+00 -1.231763e+00
      vertex 3.000000e+00 1.356763e+00 -1.440839e+00
      vertex 0.000000e+00 1.356763e+00 -1.440839e+00
    endloop
  endfacet
  facet normal 1.000000e+00 0.000000e+00 0.000000e+00
    outer loop
      vertex 3.000000e+00 5.182373e-01 -1.713292e+00
      vertex 3.000000e+00 9.817627e-01 -1.713292e+00
      vertex 3.000000e+00 1.190839e+00 -1.606763e+00
    endloop
  endfacet
  facet normal 6.594773e-17 4.539905e-01 -8.910065e-01
    outer loop
      vertex 0.000000e+00 1.190839e+00 -1.606763e+00
      vertex 3.000000e+00 1.190839e+00 -1.606763e+00
      vertex 3.000000e+00 9.817627e-01 -1.713292e+00
    endloop
  endfacet
  facet normal 1.000000e+00 0.000000e+00 0.000000e+00
    outer loop
      vertex 3.000000e+00 3.091611e-01 -1.606763e+00
      vertex 3.000000e+00 5.182373e-01 -1.713292e+00
      vertex 3.000000e+00 1.190839e+00 -1.606763e+00
    endloop
  endfacet
  facet normal 5.421357e-17 7.071068e-01 -7.071068e-01
    outer loop
      vertex 0.000000e+00 1.356763e+00 -1.440839e+00
      vertex 3.000000e+00 1.190839e+00 -1.606763e+00
      vertex 0.000000e+00 1.190839e+00 -1.606763e+00
    endloop
  endfacet
  facet normal 1.000000e+00 0.000000e+00 0.000000e+00
    outer loop
      vertex 3.000000e+00 5.182373e-01 -1.713292e+00
      vertex 3.000000e+00 7.500000e-01 -1.750000e+00
      vertex 3.000000e+00 9.817627e-01 -1.713292e+00
    endloop
  endfacet
  facet normal 0.000000e+00 1.564345e-01 -9.876883e-01
    outer loop
      vertex 0.000000e+00 9.817627e-01 -1.713292e+00
      vertex 3.000000e+00 9.817627e-01 -1.713292e+00
      vertex 3.000000e+00 7.500000e-01 -1.750000e+00
    endloop
  endfacet
  facet normal 0.000000e+00 4.539905e-01 -8.910065e-01
    outer loop
      vertex 0.000000e+00 1.190839e+00 -1.606763e+00
      vertex 3.000000e+00 9.817627e-01 -1.713292e+00
      vertex 0.000000e+00 9.817627e-01 -1.713292e+00
    endloop
  endfacet
  facet normal 1.157848e-17 -1.564345e-01 -9.876883e-01
    outer loop
      vertex 0.000000e+00 7.500000e-01 -1.750000e+00
      vertex 3.000000e+00 7.500000e-01 -1.750000e+00
      vertex 3.000000e+00 5.182373e-01 -1.713292e+00
    endloop
  endfacet
  facet normal -1.232127e-17 1.564345e-01 -9.876883e-01
    outer loop
      vertex 0.000000e+00 9.817627e-01 -1.713292e+00
      vertex 3.000000e+00 7.500000e-01 -1.750000e+00
      vertex 0.000000e+00 7.500000e-01 -1.750000e+00
    endloop
  endfacet
  facet normal -1.554466e-17 -4.539905e-01 -8.910065e-01
    outer loop
      vertex 0.000000e+00 5.182373e-01 -1.713292e+00
      vertex 3.000000e+00 5.182373e-01 -1.713292e+00
      vertex 3.000000e+00 3.091611e-01 -1.606763e+00
    endloop
  endfacet
  facet normal -5.421357e-17 -1.564345e-01 -9.876883e-01
    outer loop
      vertex 0.000000e+00 7.500000e-01 -1.750000e+00
      vertex 3.000000e+00 5.182373e-01 -1.713292e+00
      vertex 0.000000e+00 5.182373e-01 -1.713292e+00
    endloop
  endfacet
  facet normal 1.000000e+00 0.000000e+00 0.000000e+00
    outer loop
      vertex 3.000000e+00 5.586991e-01 -1.461950e+00
      vertex 3.000000e+00 1.432373e-01 -1.440839e+00
      vertex 3.000000e+00 3.091611e-01 -1.606763e+00
    endloop
  endfacet
  facet normal 1.308410e-17 -7.071068e-01 -7.071068e-01
    outer loop
      vertex 0.000000e+00 3.091611e-01 -1.606763e+00
      vertex 3.000000e+00 3.091611e-01 -1.606763e+00
      vertex 3.000000e+00 1.432373e-01 -1.440839e+00
    endloop
  endfacet
  facet normal 1.000000e+00 0.000000e+00 0.000000e+00
    outer loop
      vertex 3.000000e+00 7.500000e-01 -1.500000e+00
      vertex 3.000000e+00 5.586991e-01 -1.461950e+00
      vertex 3.000000e+00 3.091611e-01 -1.606763e+00
    endloop
  endfacet
  facet normal 4.928506e-18 -4.539905e-01 -8.910065e-01
    outer loop
      vertex 0.000000e+00 5.182373e-01 -1.713292e+00
      vertex 3.000000e+00 3.091611e-01 -1.606763e+00
      vertex 0.000000e+00 3.091611e-01 -1.606763e+00
    endloop
  endfacet
  facet normal 1.000000e+00 0.000000e+00 0.000000e+00
    outer loop
      vertex 3.000000e+00 3.964543e-01 -1.353546e+00
      vertex 3.000000e+00 3.670761e-02 -1.231763e+00
      vertex 3.000000e+00 1.432373e-01 -1.440839e+00
    endloop
  endfacet
  facet normal -6.281818e-19 -8.910065e-01 -4.539905e-01
    outer loop
      vertex 0.000000e+00 1.432373e-01 -1.440839e+00
      vertex 3.000000e+00 1.432373e-01 -1.440839e+00
      vertex 3.000000e+00 3.670761e-02 -1.231763e+00
    endloop
  endfacet
  facet normal 1.000000e+00 0.000000e+00 0.000000e+00
    outer loop
      vertex 3.000000e+00 5.586991e-01 -1.461950e+00
      vertex 3.000000e+00 3.964543e-01 -1.353546e+00
      vertex 3.000000e+00 1.432373e-01 -1.440839e+00
    endloop
  endfacet
  facet normal -2.464253e-17 -7.071068e-01 -7.071068e-01
    outer loop
      vertex 0.000000e+00 3.091611e-01 -1.606763e+00
      vertex 3.000000e+00 1.432373e-01 -1.440839e+00
      vertex 0.000000e+00 1.432373e-01 -1.440839e+00
    endloop
  endfacet
  facet normal 1.000000e+00 0.000000e+00 0.000000e+00
    outer loop
      vertex 3.000000e+00 2.880499e-01 -1.191301e+00
      vertex 3.000000e+00 2.500000e-01 -1.000000e+00
      vertex 3.000000e+00 3.670761e-02 -1.231763e+00
    endloop
  endfacet
  facet normal 1.000000e+00 0.000000e+00 0.000000e+00
    outer loop
      vertex 3.000000e+00 3.964543e-01 -1.353546e+00
      vertex 3.000000e+00 2.880499e-01 -1.191301e+00
      vertex 3.000000e+00 3.670761e-02 -1.231763e+00
    endloop
  endfacet
  facet normal 0.000000e+00 -8.910065e-01 -4.539905e-01
    outer loop
      vertex 0.000000e+00 1.432373e-01 -1.440839e+00
      vertex 3.000000e+00 3.670761e-02 -1.231763e+00
      vertex 0.000000e+00 3.670761e-02 -1.231763e+00
    endloop
  endfacet
  facet normal 0.000000e+00 9.807874e-01 1.950796e-01
    outer loop
      vertex 0.000000e+00 2.500000e-01 -1.000000e+00
      vertex 3.000000e+00 2.500000e-01 -1.000000e+00
      vertex 3.000000e+00 2.880499e-01 -1.191301e+00
    endloop
  endfacet
  facet normal 0.000000e+00 9.807874e-01 -1.950796e-01
    outer loop
      vertex 0.000000e+00 2.880499e-01 -8.086991e-01
      vertex 3.000000e+00 2.880499e-01 -8.086991e-01
      vertex 3.000000e+00 2.500000e-01 -1.000000e+00
    endloop
  endfacet
  facet normal 0.000000e+00 9.807874e-01 -1.950796e-01
    outer loop
      vertex 0.000000e+00 2.880499e-01 -8.086991e-01
      vertex 3.000000e+00 2.500000e-01 -1.000000e+00
      vertex 0.000000e+00 2.500000e-01 -1.000000e+00
    endloop
  endfacet
  facet normal 0.000000e+00 8.314795e-01 5.555555e-01
    outer loop
      vertex 0.000000e+00 2.880499e-01 -1.191301e+00
      vertex 3.000000e+00 2.880499e-01 -1.191301e+00
      vertex 3.000000e+00 3.964543e-01 -1.353546e+00
    endloop
  endfacet
  facet normal 0.000000e+00 9.807874e-01 1.950796e-01
    outer loop
      vertex 0.000000e+00 2.880499e-01 -1.191301e+00
      vertex 0.000000e+00 2.500000e-01 -1.000000e+00
      vertex 3.000000e+00 2.880499e-01 -1.191301e+00
    endloop
  endfacet
  facet normal 0.000000e+00 5.555555e-01 8.314795e-01
    outer loop
      vertex 0.000000e+00 3.964543e-01 -1.353546e+00
      vertex 3.000000e+00 3.964543e-01 -1.353546e+00
      vertex 3.000000e+00 5.586991e-01 -1.461950e+00
    endloop
  endfacet
  facet normal 0.000000e+00 8.314795e-01 5.555555e-01
    outer loop
      vertex 0.000000e+00 2.880499e-01 -1.191301e+00
      vertex 3.000000e+00 3.964543e-01 -1.353546e+00
      vertex 0.000000e+00 3.964543e-01 -1.353546e+00
    endloop
  endfacet
  facet normal 7.259285e-17 1.950796e-01 9.807874e-01
    outer loop
      vertex 0.000000e+00 5.586991e-01 -1.461950e+00
      vertex 3.000000e+00 5.586991e-01 -1.461950e+00
      vertex 3.000000e+00 7.500000e-01 -1.500000e+00
    endloop
  endfacet
  facet normal 6.519473e-17 5.555555e-01 8.314795e-01
    outer loop
      vertex 0.000000e+00 3.964543e-01 -1.353546e+00
      vertex 3.000000e+00 5.586991e-01 -1.461950e+00
      vertex 0.000000e+00 5.586991e-01 -1.461950e+00
    endloop
  endfacet
  facet normal 0.000000e+00 -1.950796e-01 9.807874e-01
    outer loop
      vertex 0.000000e+00 7.500000e-01 -1.500000e+00
      vertex 3.000000e+00 7.500000e-01 -1.500000e+00
      vertex 3.000000e+00 9.413009e-01 -1.461950e+00
    endloop
  endfacet
  facet normal 0.000000e+00 1.950796e-01 9.807874e-01
    outer loop
      vertex 0.000000e+00 5.586991e-01 -1.461950e+00
      vertex 3.000000e+00 7.500000e-01 -1.500000e+00
      vertex 0.000000e+00 7.500000e-01 -1.500000e+00
    endloop
  endfacet
  facet normal 6.154184e-17 -5.555555e-01 8.314795e-01
    outer loop
      vertex 0.000000e+00 9.413009e-01 -1.461950e+00
      vertex 3.000000e+00 9.413009e-01 -1.461950e+00
      vertex 3.000000e+00 1.103546e+00 -1.353546e+00
    endloop
  endfacet
  facet normal 7.263282e-17 -1.950796e-01 9.807874e-01
    outer loop
      vertex 0.000000e+00 7.500000e-01 -1.500000e+00
      vertex 3.000000e+00 9.413009e-01 -1.461950e+00
      vertex 0.000000e+00 9.413009e-01 -1.461950e+00
    endloop
  endfacet
  facet normal 0.000000e+00 -8.314795e-01 5.555555e-01
    outer loop
      vertex 0.000000e+00 1.103546e+00 -1.353546e+00
      vertex 3.000000e+00 1.103546e+00 -1.353546e+00
      vertex 3.000000e+00 1.211950e+00 -1.191301e+00
    endloop
  endfacet
  facet normal 0.000000e+00 -5.555555e-01 8.314795e-01
    outer loop
      vertex 0.000000e+00 9.413009e-01 -1.461950e+00
      vertex 3.000000e+00 1.103546e+00 -1.353546e+00
      vertex 0.000000e+00 1.103546e+00 -1.353546e+00
    endloop
  endfacet
  facet normal -1.443879e-17 -9.807874e-01 1.950796e-01
    outer loop
      vertex 0.000000e+00 1.211950e+00 -1.191301e+00
      vertex 3.000000e+00 1.211950e+00 -1.191301e+00
      vertex 3.000000e+00 1.250000e+00 -1.000000e+00
    endloop
  endfacet
  facet normal -4.148755e-17 -8.314795e-01 5.555555e-01
    outer loop
      vertex 0.000000e+00 1.103546e+00 -1.353546e+00
      vertex 3.000000e+00 1.211950e+00 -1.191301e+00
      vertex 0.000000e+00 1.211950e+00 -1.191301e+00
    endloop
  endfacet
  facet normal 0.000000e+00 -9.807874e-01 -1.950796e-01
    outer loop
      vertex 0.000000e+00 1.250000e+00 -1.000000e+00
      vertex 3.000000e+00 1.250000e+00 -1.000000e+00
      vertex 3.000000e+00 1.211950e+00 -8.086991e-01
    endloop
  endfacet
  facet normal 0.000000e+00 -9.807874e-01 1.950796e-01
    outer loop
      vertex 0.000000e+00 1.211950e+00 -1.191301e+00
      vertex 3.000000e+00 1.250000e+00 -1.000000e+00
      vertex 0.000000e+00 1.250000e+00 -1.000000e+00
    endloop
  endfacet
  facet normal 0.000000e+00 -8.314795e-01 -5.555555e-01
    outer loop
      vertex 0.000000e+00 1.211950e+00 -8.086991e-01
      vertex 3.000000e+00 1.211950e+00 -8.086991e-01
      vertex 3.000000e+00 1.103546e+00 -6.464543e-01
    endloop
  endfacet
  facet normal 0.000000e+00 -9.807874e-01 -1.950796e-01
    outer loop
      vertex 0.000000e+00 1.250000e+00 -1.000000e+00
      vertex 3.000000e+00 1.211950e+00 -8.086991e-01
      vertex 0.000000e+00 1.211950e+00 -8.086991e-01
    endloop
  endfacet
  facet normal 0.000000e+00 -5.555555e-01 -8.314795e-01
    outer loop
      vertex 0.000000e+00 1.103546e+00 -6.464543e-01
      vertex 3.000000e+00 1.103546e+00 -6.464543e-01
      vertex 3.000000e+00 9.413009e-01 -5.380499e-01
    endloop
  endfacet
  facet normal 0.000000e+00 -8.314795e-01 -5.555555e-01
    outer loop
      vertex 0.000000e+00 1.211950e+00 -8.086991e-01
      vertex 3.000000e+00 1.103546e+00 -6.464543e-01
      vertex 0.000000e+00 1.103546e+00 -6.464543e-01
    endloop
  endfacet
  facet normal 3.629643e-17 -1.950796e-01 -9.807874e-01
    outer loop
      vertex 0.000000e+00 9.413009e-01 -5.380499e-01
      vertex 3.000000e+00 9.413009e-01 -5.380499e-01
      vertex 3.000000e+00 7.500000e-01 -5.000000e-01
    endloop
  endfacet
  facet normal 2.963397e-17 -5.555555e-01 -8.314795e-01
    outer loop
      vertex 0.000000e+00 1.103546e+00 -6.464543e-01
      vertex 3.000000e+00 9.413009e-01 -5.380499e-01
      vertex 0.000000e+00 9.413009e-01 -5.380499e-01
    endloop
  endfacet
  facet normal 0.000000e+00 1.950796e-01 -9.807874e-01
    outer loop
      vertex 0.000000e+00 7.500000e-01 -5.000000e-01
      vertex 3.000000e+00 7.500000e-01 -5.000000e-01
      vertex 3.000000e+00 5.586991e-01 -5.380499e-01
    endloop
  endfacet
  facet normal 0.000000e+00 -1.950796e-01 -9.807874e-01
    outer loop
      vertex 0.000000e+00 9.413009e-01 -5.380499e-01
      vertex 3.000000e+00 7.500000e-01 -5.000000e-01
      vertex 0.000000e+00 7.500000e-01 -5.000000e-01
    endloop
  endfacet
  facet normal 0.000000e+00 5.555555e-01 -8.314795e-01
    outer loop
      vertex 0.000000e+00 5.586991e-01 -5.380499e-01
      vertex 3.000000e+00 5.586991e-01 -5.380499e-01
      vertex 3.000000e+00 3.964543e-01 -6.464543e-01
    endloop
  endfacet
  facet normal 0.000000e+00 1.950796e-01 -9.807874e-01
    outer loop
      vertex 0.000000e+00 7.500000e-01 -5.000000e-01
      vertex 3.000000e+00 5.586991e-01 -5.380499e-01
      vertex 0.000000e+00 5.586991e-01 -5.380499e-01
    endloop
  endfacet
  facet normal 3.077092e-17 8.314795e-01 -5.555555e-01
    outer loop
      vertex 0.000000e+00 3.964543e-01 -6.464543e-01
      vertex 3.000000e+00 3.964543e-01 -6.464543e-01
      vertex 3.000000e+00 2.880499e-01 -8.086991e-01
    endloop
  endfacet
  facet normal 2.370717e-17 5.555555e-01 -8.314795e-01
    outer loop
      vertex 0.000000e+00 5.586991e-01 -5.380499e-01
      vertex 3.000000e+00 3.964543e-01 -6.464543e-01
      vertex 0.000000e+00 3.964543e-01 -6.464543e-01
    endloop
  endfacet
  facet normal 0.000000e+00 8.314795e-01 -5.555555e-01
    outer loop
      vertex 0.000000e+00 3.964543e-01 -6.464543e-01
      vertex 3.000000e+00 2.880499e-01 -8.086991e-01
      vertex 0.000000e+00 2.880499e-01 -8.086991e-01
    endloop
  endfacet
  facet normal -1.000000e+00 0.000000e+00 0.000000e+00
    outer loop
      vertex 0.000000e+00 3.964543e-01 -1.353546e+00
      vertex 0.000000e+00 1.432373e-01 -1.440839e+00
      vertex 0.000000e+00 3.670761e-02 -1.231763e+00
    endloop
  endfacet
  facet normal -1.000000e+00 0.000000e+00 0.000000e+00
    outer loop
      vertex 0.000000e+00 2.880499e-01 -1.191301e+00
      vertex 0.000000e+00 3.964543e-01 -1.353546e+00
      vertex 0.000000e+00 3.670761e-02 -1.231763e+00
    endloop
  endfacet
  facet normal -1.000000e+00 0.000000e+00 0.000000e+00
    outer loop
      vertex 0.000000e+00 1.190839e+00 -1.606763e+00
      vertex 0.000000e+00 3.091611e-01 -1.606763e+00
      vertex 0.000000e+00 1.432373e-01 -1.440839e+00
    endloop
  endfacet
  facet normal -1.000000e+00 0.000000e+00 0.000000e+00
    outer loop
      vertex 0.000000e+00 7.500000e-01 -1.500000e+00
      vertex 0.000000e+00 1.190839e+00 -1.606763e+00
      vertex 0.000000e+00 1.432373e-01 -1.440839e+00
    endloop
  endfacet
  facet normal -1.000000e+00 0.000000e+00 0.000000e+00
    outer loop
      vertex 0.000000e+00 5.586991e-01 -1.461950e+00
      vertex 0.000000e+00 7.500000e-01 -1.500000e+00
      vertex 0.000000e+00 1.432373e-01 -1.440839e+00
    endloop
  endfacet
  facet normal -1.000000e+00 0.000000e+00 0.000000e+00
    outer loop
      vertex 0.000000e+00 3.964543e-01 -1.353546e+00
      vertex 0.000000e+00 5.586991e-01 -1.461950e+00
      vertex 0.000000e+00 1.432373e-01 -1.440839e+00
    endloop
  endfacet
  facet normal -1.000000e+00 0.000000e+00 0.000000e+00
    outer loop
      vertex 0.000000e+00 9.817627e-01 -1.713292e+00
      vertex 0.000000e+00 5.182373e-01 -1.713292e+00
      vertex 0.000000e+00 3.091611e-01 -1.606763e+00
    endloop
  endfacet
  facet normal -1.000000e+00 0.000000e+00 0.000000e+00
    outer loop
      vertex 0.000000e+00 1.190839e+00 -1.606763e+00
      vertex 0.000000e+00 9.817627e-01 -1.713292e+00
      vertex 0.000000e+00 3.091611e-01 -1.606763e+00
    endloop
  endfacet
  facet normal -1.000000e+00 0.000000e+00 0.000000e+00
    outer loop
      vertex 0.000000e+00 9.817627e-01 -1.713292e+00
      vertex 0.000000e+00 7.500000e-01 -1.750000e+00
      vertex 0.000000e+00 5.182373e-01 -1.713292e+00
    endloop
  endfacet
  facet normal -1.000000e+00 0.000000e+00 0.000000e+00
    outer loop
      vertex 0.000000e+00 9.413009e-01 -1.461950e+00
      vertex 0.000000e+00 1.356763e+00 -1.440839e+00
      vertex 0.000000e+00 1.190839e+00 -1.606763e+00
    endloop
  endfacet
  facet normal -1.000000e+00 0.000000e+00 0.000000e+00
    outer loop
      vertex 0.000000e+00 7.500000e-01 -1.500000e+00
      vertex 0.000000e+00 9.413009e-01 -1.461950e+00
      vertex 0.000000e+00 1.190839e+00 -1.606763e+00
    endloop
  endfacet
  facet normal -1.000000e+00 0.000000e+00 0.000000e+00
    outer loop
      vertex 0.000000e+00 1.103546e+00 -1.353546e+00
      vertex 0.000000e+00 1.463292e+00 -1.231763e+00
      vertex 0.000000e+00 1.356763e+00 -1.440839e+00
    endloop
  endfacet
  facet normal -1.000000e+00 0.000000e+00 0.000000e+00
    outer loop
      vertex 0.000000e+00 9.413009e-01 -1.461950e+00
      vertex 0.000000e+00 1.103546e+00 -1.353546e+00
      vertex 0.000000e+00 1.356763e+00 -1.440839e+00
    endloop
  endfacet
  facet normal -1.000000e+00 0.000000e+00 0.000000e+00
    outer loop
      vertex 0.000000e+00 1.211950e+00 -1.191301e+00
      vertex 0.000000e+00 1.250000e+00 -1.000000e+00
      vertex 0.000000e+00 1.463292e+00 -1.231763e+00
    endloop
  endfacet
  facet normal -1.000000e+00 0.000000e+00 0.000000e+00
    outer loop
      vertex 0.000000e+00 1.103546e+00 -1.353546e+00
      vertex 0.000000e+00 1.211950e+00 -1.191301e+00
      vertex 0.000000e+00 1.463292e+00 -1.231763e+00
    endloop
  endfacet
  facet normal 0.000000e+00 0.000000e+00 1.000000e+00
    outer loop
      vertex 2.825159e-01 1.306269e+00 -5.000000e-01
      vertex 2.825159e-01 1.193731e+00 -5.000000e-01
      vertex 3.150000e-01 1.250000e+00 -5.000000e-01
    endloop
  endfacet
  facet normal 0.000000e+00 0.000000e+00 1.000000e+00
    outer loop
      vertex 2.174841e-01 1.306269e+00 -5.000000e-01
      vertex 2.174841e-01 1.193731e+00 -5.000000e-01
      vertex 2.825159e-01 1.193731e+00 -5.000000e-01
    endloop
  endfacet
  facet normal 0.000000e+00 0.000000e+00 1.000000e+00
    outer loop
      vertex 2.825159e-01 1.306269e+00 -5.000000e-01
      vertex 2.174841e-01 1.306269e+00 -5.000000e-01
      vertex 2.825159e-01 1.193731e+00 -5.000000e-01
    endloop
  endfacet
  facet normal 0.000000e+00 0.000000e+00 1.000000e+00
    outer loop
      vertex 2.174841e-01 1.306269e+00 -5.000000e-01
      vertex 1.850000e-01 1.250000e+00 -5.000000e-01
      vertex 2.174841e-01 1.193731e+00 -5.000000e-01
    endloop
  endfacet
  facet normal 0.000000e+00 0.000000e+00 1.000000e+00
    outer loop
      vertex 2.825159e-01 3.062690e-01 -5.000000e-01
      vertex 2.825159e-01 1.937310e-01 -5.000000e-01
      vertex 3.150000e-01 2.500000e-01 -5.000000e-01
    endloop
  endfacet
  facet normal 0.000000e+00 0.000000e+00 1.000000e+00
    outer loop
      vertex 2.174841e-01 3.062690e-01 -5.000000e-01
      vertex 2.174841e-01 1.937310e-01 -5.000000e-01
      vertex 2.825159e-01 1.937310e-01 -5.000000e-01
    endloop
  endfacet
  facet normal 0.000000e+00 0.000000e+00 1.000000e+00
    outer loop
      vertex 2.825159e-01 3.062690e-01 -5.000000e-01
      vertex 2.174841e-01 3.062690e-01 -5.000000e-01
      vertex 2.825159e-01 1.937310e-01 -5.000000e-01
    endloop
  endfacet
  facet normal 0.000000e+00 0.000000e+00 1.000000e+00
    outer loop
      vertex 2.174841e-01 3.062690e-01 -5.000000e-01
      vertex 1.850000e-01 2.500000e-01 -5.000000e-01
      vertex 2.174841e-01 1.937310e-01 -5.000000e-01
    endloop
  endfacet
  facet normal 0.000000e+00 0.000000e+00 1.000000e+00
    outer loop
      vertex 2.532516e+00 3.062690e-01 -5.000000e-01
      vertex 2.532516e+00 1.937310e-01 -5.000000e-01
      vertex 2.565000e+00 2.500000e-01 -5.000000e-01
    endloop
  endfacet
  facet normal 0.000000e+00 0.000000e+00 1.000000e+00
    outer loop
      vertex 2.467484e+00 3.062690e-01 -5.000000e-01
      vertex 2.467484e+00 1.937310e-01 -5.000000e-01
      vertex 2.532516e+00 1.937310e-01 -5.000000e-01
    endloop
  endfacet
  facet normal 0.000000e+00 0.000000e+00 1.000000e+00
    outer loop
      vertex 2.532516e+00 3.062690e-01 -5.000000e-01
      vertex 2.467484e+00 3.062690e-01 -5.000000e-01
      vertex 2.532516e+00 1.937310e-01 -5.000000e-01
    endloop
  endfacet
  facet normal 0.000000e+00 0.000000e+00 1.000000e+00
    outer loop
      vertex 2.467484e+00 3.062690e-01 -5.000000e-01
      vertex 2.435000e+00 2.500000e-01 -5.000000e-01
      vertex 2.467484e+00 1.937310e-01 -5.000000e-01
    endloop
  endfacet
  facet normal 0.000000e+00 0.000000e+00 1.000000e+00
    outer loop
      vertex 2.532516e+00 1.306269e+00 -5.000000e-01
      vertex 2.532516e+00 1.193731e+00 -5.000000e-01
      vertex 2.565000e+00 1.250000e+00 -5.000000e-01
    endloop
  endfacet
  facet normal 0.000000e+00 0.000000e+00 1.000000e+00
    outer loop
      vertex 2.467484e+00 1.306269e+00 -5.000000e-01
      vertex 2.467484e+00 1.193731e+00 -5.000000e-01
      vertex 2.532516e+00 1.193731e+00 -5.000000e-01
    endloop
  endfacet
  facet normal 0.000000e+00 0.000000e+00 1.000000e+00
    outer loop
      vertex 2.532516e+00 1.306269e+00 -5.000000e-01
      vertex 2.467484e+00 1.306269e+00 -5.000000e-01
      vertex 2.532516e+00 1.193731e+00 -5.000000e-01
    endloop
  endfacet
  facet normal 0.000000e+00 0.000000e+00 1.000000e+00
    outer loop
      vertex 2.467484e+00 1.306269e+00 -5.000000e-01
      vertex 2.435000e+00 1.250000e+00 -5.000000e-01
      vertex 2.467484e+00 1.193731e+00 -5.000000e-01
    endloop
  endfacet
endsolid 40323106_CYLINDER
